# xmcd CD database file
#
# Track frame offsets:
#	150
#	15844
#	32853
#	51482
#	66963
#	88956
#	104657
#	125106
#	145115
#	164745
#	183141
#	198928
#	221335
#
# Disc length: 3229 seconds
#
# Revision: 0
# Processed by: cddbd v1.5.2PL0 Copyright (c) Steve Scherf et al.
# Submitted via: CDex 1.70beta2
#
DISCID=c10c9b0d
DTITLE=四兄弟 - Hi-Fi男声
DYEAR=1900
DGENRE=New Age
TTITLE0=干杯，朋友
TTITLE1=謝謝最深愛的你
TTITLE2=天黑黑
TTITLE3=明月千里寄相思
TTITLE4=酒幹倘賣無
TTITLE5=穿過你的黑髮我的手
TTITLE6=是不是這樣的夜晚你才會這樣的想起我
TTITLE7=啊，停不住的愛人
TTITLE8=明天你是否依然愛我
TTITLE9=最遠的你是我最近的愛
TTITLE10=晚秋
TTITLE11=陽光總在風雨後
TTITLE12=故鄉的雲
EXTD=
EXTT0=
EXTT1=
EXTT2=
EXTT3=
EXTT4=
EXTT5=
EXTT6=
EXTT7=
EXTT8=
EXTT9=
EXTT10=
EXTT11=
EXTT12=
PLAYORDER=
